<?xml version="1.0" encoding="utf-8"?>
<!-- Generator: Adobe Illustrator 16.0.0, SVG Export Plug-In . SVG Version: 6.00 Build 0)  -->
<!DOCTYPE svg PUBLIC "-//W3C//DTD SVG 1.1//EN" "http://www.w3.org/Graphics/SVG/1.1/DTD/svg11.dtd">
<svg version="1.1" id="Layer_1" xmlns="http://www.w3.org/2000/svg" xmlns:xlink="http://www.w3.org/1999/xlink" x="0px" y="0px"
	 viewBox="0 0 960 560" enable-background="new 0 0 960 560" xml:space="preserve">
<path fill="#FFFFFF" stroke="#FFFFFF" stroke-miterlimit="10" d="M938.5,466.771c0,18.059-14.602,32.729-32.659,32.729H50.2
	c-18.06,0-32.7-14.671-32.7-32.729V66.2c0-18.06,14.64-32.7,32.7-32.7h855.641c18.059,0,32.659,14.64,32.659,32.7V466.771z"/>
<path fill="#751E77" stroke="#6A176D" stroke-miterlimit="10" d="M881.5,428.621c0,18.058-14.825,32.879-32.884,32.879H110.149
	c-18.06,0-32.649-14.821-32.649-32.879V107.074c0-18.06,14.589-32.574,32.649-32.574h738.467c18.059,0,32.884,14.515,32.884,32.574
	V428.621L881.5,428.621z"/>
<path fill="#93278F" stroke="#93278F" stroke-miterlimit="10" d="M877.5,121.2c0-18.06-21.4-32.7-47.801-32.7H140.301
	c-26.399,0-47.801,14.64-47.801,32.7v307.601c0,18.06,21.401,32.699,47.801,32.699h689.398c26.401,0,47.801-14.641,47.801-32.699
	V121.2z"/>
<path fill="#A09810" stroke="#A09810" stroke-miterlimit="10" d="M903.5,441.801c0,18.061-14.64,32.699-32.7,32.699H541.2
	c-18.06,0-32.7-14.64-32.7-32.699V101.199c0-18.059,14.641-32.699,32.7-32.699h329.6c18.061,0,32.7,14.64,32.7,32.699V441.801z"/>
<path fill="#FFF600" stroke="#FFF600" stroke-miterlimit="10" d="M895.5,434.07c0,18.059-14.37,32.43-32.429,32.43H530.625
	c-18.061,0-33.125-14.371-33.125-32.43V101.625c0-18.06,15.064-33.125,33.125-33.125h332.446c18.06,0,32.429,15.064,32.429,33.125
	V434.07z"/>
</svg>
